<mxfile host="app.diagrams.net" agent="Mozilla/5.0 (Windows NT 10.0; Win64; x64) AppleWebKit/537.36 (KHTML, like Gecko) Chrome/127.0.0.0 Safari/537.36" version="24.7.6">
  <diagram name="페이지-1" id="QM7ocOrHrc-ywiHIguHA">
    <mxGraphModel dx="2963" dy="1770" grid="1" gridSize="10" guides="1" tooltips="1" connect="1" arrows="1" fold="1" page="1" pageScale="1" pageWidth="1169" pageHeight="827" math="0" shadow="0">
      <root>
        <mxCell id="0" />
        <mxCell id="1" parent="0" />
        <mxCell id="oRaf55NZsHwc-dt8a6Yf-2" value="&lt;font style=&quot;font-size: 13px;&quot;&gt;경로 안내&lt;/font&gt;" style="swimlane;whiteSpace=wrap;html=1;startSize=30;" parent="1" vertex="1">
          <mxGeometry x="365" y="238" width="600" height="580" as="geometry">
            <mxRectangle x="200" y="140" width="100" height="30" as="alternateBounds" />
          </mxGeometry>
        </mxCell>
        <mxCell id="ADXxkapIHS1w_zyvAE5N-20" value="경로 내&lt;div&gt;도로 정보 조회&lt;/div&gt;" style="ellipse;whiteSpace=wrap;html=1;" parent="oRaf55NZsHwc-dt8a6Yf-2" vertex="1">
          <mxGeometry x="155" y="500" width="120" height="60" as="geometry" />
        </mxCell>
        <mxCell id="ADXxkapIHS1w_zyvAE5N-15" value="최적 경로&amp;nbsp;&lt;span style=&quot;background-color: initial;&quot;&gt;검색&lt;/span&gt;" style="ellipse;whiteSpace=wrap;html=1;" parent="oRaf55NZsHwc-dt8a6Yf-2" vertex="1">
          <mxGeometry x="155" y="270" width="120" height="60" as="geometry" />
        </mxCell>
        <mxCell id="ADXxkapIHS1w_zyvAE5N-17" value="출발지를&lt;div&gt;입력한다&lt;/div&gt;" style="ellipse;whiteSpace=wrap;html=1;" parent="oRaf55NZsHwc-dt8a6Yf-2" vertex="1">
          <mxGeometry x="420" y="166" width="120" height="60" as="geometry" />
        </mxCell>
        <mxCell id="ADXxkapIHS1w_zyvAE5N-29" value="목적지를&lt;div&gt;입력한다&lt;/div&gt;" style="ellipse;whiteSpace=wrap;html=1;" parent="oRaf55NZsHwc-dt8a6Yf-2" vertex="1">
          <mxGeometry x="420" y="270" width="120" height="60" as="geometry" />
        </mxCell>
        <mxCell id="ADXxkapIHS1w_zyvAE5N-21" value="" style="edgeStyle=orthogonalEdgeStyle;rounded=0;orthogonalLoop=1;jettySize=auto;html=1;dashed=1;endArrow=open;endFill=0;" parent="oRaf55NZsHwc-dt8a6Yf-2" source="ADXxkapIHS1w_zyvAE5N-20" target="ADXxkapIHS1w_zyvAE5N-15" edge="1">
          <mxGeometry relative="1" as="geometry" />
        </mxCell>
        <mxCell id="ADXxkapIHS1w_zyvAE5N-23" value="&amp;lt;&amp;lt;extend&amp;gt;&amp;gt;" style="edgeLabel;html=1;align=center;verticalAlign=middle;resizable=0;points=[];" parent="ADXxkapIHS1w_zyvAE5N-21" vertex="1" connectable="0">
          <mxGeometry x="0.2475" y="1" relative="1" as="geometry">
            <mxPoint x="1" y="6" as="offset" />
          </mxGeometry>
        </mxCell>
        <mxCell id="1wFjq2a3WxG1-liffLTs-3" value="지도 조회&amp;nbsp;&lt;span style=&quot;background-color: initial;&quot;&gt;실패&lt;/span&gt;&lt;div&gt;&lt;span style=&quot;background-color: initial;&quot;&gt;메시지 출력&lt;/span&gt;&lt;/div&gt;" style="ellipse;whiteSpace=wrap;html=1;" parent="oRaf55NZsHwc-dt8a6Yf-2" vertex="1">
          <mxGeometry x="420" y="60" width="120" height="60" as="geometry" />
        </mxCell>
        <mxCell id="1wFjq2a3WxG1-liffLTs-6" value="경로 검색 실패&lt;div&gt;메시지 출력&lt;/div&gt;" style="ellipse;whiteSpace=wrap;html=1;" parent="oRaf55NZsHwc-dt8a6Yf-2" vertex="1">
          <mxGeometry x="420" y="476" width="120" height="60" as="geometry" />
        </mxCell>
        <mxCell id="1wFjq2a3WxG1-liffLTs-9" value="경로 정보 조회" style="ellipse;whiteSpace=wrap;html=1;" parent="oRaf55NZsHwc-dt8a6Yf-2" vertex="1">
          <mxGeometry x="420" y="376" width="120" height="60" as="geometry" />
        </mxCell>
        <mxCell id="Ezs42kzGgRSB87XgSNbD-1" value="" style="endArrow=classic;html=1;rounded=0;dashed=1;entryX=0;entryY=0.5;entryDx=0;entryDy=0;exitX=1;exitY=0.5;exitDx=0;exitDy=0;" edge="1" parent="oRaf55NZsHwc-dt8a6Yf-2" source="ADXxkapIHS1w_zyvAE5N-15" target="ADXxkapIHS1w_zyvAE5N-17">
          <mxGeometry relative="1" as="geometry">
            <mxPoint x="290" y="270" as="sourcePoint" />
            <mxPoint x="392" y="165" as="targetPoint" />
          </mxGeometry>
        </mxCell>
        <mxCell id="Ezs42kzGgRSB87XgSNbD-2" value="&amp;lt;&amp;lt;include&amp;gt;&amp;gt;" style="edgeLabel;resizable=0;html=1;;align=center;verticalAlign=middle;" connectable="0" vertex="1" parent="Ezs42kzGgRSB87XgSNbD-1">
          <mxGeometry relative="1" as="geometry" />
        </mxCell>
        <mxCell id="Ezs42kzGgRSB87XgSNbD-3" value="" style="endArrow=classic;html=1;rounded=0;dashed=1;entryX=0;entryY=0.5;entryDx=0;entryDy=0;exitX=1;exitY=0.5;exitDx=0;exitDy=0;" edge="1" parent="oRaf55NZsHwc-dt8a6Yf-2" source="ADXxkapIHS1w_zyvAE5N-15" target="ADXxkapIHS1w_zyvAE5N-29">
          <mxGeometry relative="1" as="geometry">
            <mxPoint x="285" y="310" as="sourcePoint" />
            <mxPoint x="430" y="230" as="targetPoint" />
          </mxGeometry>
        </mxCell>
        <mxCell id="Ezs42kzGgRSB87XgSNbD-4" value="&amp;lt;&amp;lt;include&amp;gt;&amp;gt;" style="edgeLabel;resizable=0;html=1;;align=center;verticalAlign=middle;" connectable="0" vertex="1" parent="Ezs42kzGgRSB87XgSNbD-3">
          <mxGeometry relative="1" as="geometry" />
        </mxCell>
        <mxCell id="Ezs42kzGgRSB87XgSNbD-5" value="" style="endArrow=classic;html=1;rounded=0;dashed=1;entryX=0;entryY=0.5;entryDx=0;entryDy=0;exitX=1;exitY=0.5;exitDx=0;exitDy=0;" edge="1" parent="oRaf55NZsHwc-dt8a6Yf-2" source="ADXxkapIHS1w_zyvAE5N-15" target="1wFjq2a3WxG1-liffLTs-9">
          <mxGeometry relative="1" as="geometry">
            <mxPoint x="295" y="320" as="sourcePoint" />
            <mxPoint x="440" y="240" as="targetPoint" />
          </mxGeometry>
        </mxCell>
        <mxCell id="Ezs42kzGgRSB87XgSNbD-6" value="&amp;lt;&amp;lt;include&amp;gt;&amp;gt;" style="edgeLabel;resizable=0;html=1;;align=center;verticalAlign=middle;" connectable="0" vertex="1" parent="Ezs42kzGgRSB87XgSNbD-5">
          <mxGeometry relative="1" as="geometry" />
        </mxCell>
        <mxCell id="Ezs42kzGgRSB87XgSNbD-7" value="" style="endArrow=classic;html=1;rounded=0;dashed=1;entryX=1;entryY=0.5;entryDx=0;entryDy=0;exitX=0;exitY=0.5;exitDx=0;exitDy=0;" edge="1" parent="oRaf55NZsHwc-dt8a6Yf-2" source="1wFjq2a3WxG1-liffLTs-6" target="ADXxkapIHS1w_zyvAE5N-15">
          <mxGeometry relative="1" as="geometry">
            <mxPoint x="402" y="218" as="sourcePoint" />
            <mxPoint x="300" y="560" as="targetPoint" />
          </mxGeometry>
        </mxCell>
        <mxCell id="Ezs42kzGgRSB87XgSNbD-8" value="&amp;lt;&amp;lt;extend&amp;gt;&amp;gt;" style="edgeLabel;resizable=0;html=1;;align=center;verticalAlign=middle;" connectable="0" vertex="1" parent="Ezs42kzGgRSB87XgSNbD-7">
          <mxGeometry relative="1" as="geometry" />
        </mxCell>
        <mxCell id="ADXxkapIHS1w_zyvAE5N-1" value="사용자" style="shape=umlActor;verticalLabelPosition=bottom;verticalAlign=top;html=1;outlineConnect=0;" parent="1" vertex="1">
          <mxGeometry x="180" y="795" width="30" height="60" as="geometry" />
        </mxCell>
        <mxCell id="ADXxkapIHS1w_zyvAE5N-8" value="지도 조회" style="ellipse;whiteSpace=wrap;html=1;" parent="1" vertex="1">
          <mxGeometry x="520" y="298" width="120" height="60" as="geometry" />
        </mxCell>
        <mxCell id="ADXxkapIHS1w_zyvAE5N-24" value="" style="edgeStyle=orthogonalEdgeStyle;rounded=0;orthogonalLoop=1;jettySize=auto;html=1;dashed=1;endArrow=open;endFill=0;" parent="1" source="ADXxkapIHS1w_zyvAE5N-15" target="ADXxkapIHS1w_zyvAE5N-8" edge="1">
          <mxGeometry relative="1" as="geometry" />
        </mxCell>
        <mxCell id="ADXxkapIHS1w_zyvAE5N-25" value="&amp;lt;&amp;lt;include&amp;gt;&amp;gt;" style="edgeLabel;html=1;align=center;verticalAlign=middle;resizable=0;points=[];" parent="ADXxkapIHS1w_zyvAE5N-24" vertex="1" connectable="0">
          <mxGeometry x="-0.2381" y="1" relative="1" as="geometry">
            <mxPoint x="1" y="-15" as="offset" />
          </mxGeometry>
        </mxCell>
        <mxCell id="Dk4b3AysWtvdtYyFpGCY-51" value="&lt;span style=&quot;font-size: 13px;&quot;&gt;교통혼잡지수 (TCI)&lt;/span&gt;" style="swimlane;whiteSpace=wrap;html=1;startSize=30;" parent="1" vertex="1">
          <mxGeometry x="365" y="834" width="600" height="580" as="geometry">
            <mxRectangle x="200" y="140" width="100" height="30" as="alternateBounds" />
          </mxGeometry>
        </mxCell>
        <mxCell id="Dk4b3AysWtvdtYyFpGCY-53" value="TCI 지도 &lt;br&gt;시각화 조회" style="ellipse;whiteSpace=wrap;html=1;" parent="Dk4b3AysWtvdtYyFpGCY-51" vertex="1">
          <mxGeometry x="155" y="352" width="120" height="60" as="geometry" />
        </mxCell>
        <mxCell id="Dk4b3AysWtvdtYyFpGCY-54" value="구분별&lt;br&gt;상세설명 보기" style="ellipse;whiteSpace=wrap;html=1;" parent="Dk4b3AysWtvdtYyFpGCY-51" vertex="1">
          <mxGeometry x="420" y="450" width="120" height="60" as="geometry" />
        </mxCell>
        <mxCell id="Dk4b3AysWtvdtYyFpGCY-67" value="실시간 순위 조회" style="ellipse;whiteSpace=wrap;html=1;" parent="Dk4b3AysWtvdtYyFpGCY-51" vertex="1">
          <mxGeometry x="420" y="250" width="120" height="60" as="geometry" />
        </mxCell>
        <mxCell id="Dk4b3AysWtvdtYyFpGCY-48" value="TCI 메인 페이지 &lt;br&gt;조회" style="ellipse;whiteSpace=wrap;html=1;" parent="Dk4b3AysWtvdtYyFpGCY-51" vertex="1">
          <mxGeometry x="155" y="76" width="120" height="60" as="geometry" />
        </mxCell>
        <mxCell id="Dk4b3AysWtvdtYyFpGCY-55" value="정보 갱신하기" style="ellipse;whiteSpace=wrap;html=1;" parent="Dk4b3AysWtvdtYyFpGCY-51" vertex="1">
          <mxGeometry x="420" y="352" width="120" height="60" as="geometry" />
        </mxCell>
        <mxCell id="Dk4b3AysWtvdtYyFpGCY-64" value="실시간 정보&lt;br&gt;불러오기" style="ellipse;whiteSpace=wrap;html=1;" parent="Dk4b3AysWtvdtYyFpGCY-51" vertex="1">
          <mxGeometry x="420" y="150" width="120" height="60" as="geometry" />
        </mxCell>
        <mxCell id="Ezs42kzGgRSB87XgSNbD-34" value="" style="endArrow=triangle;html=0;rounded=0;dashed=0;entryX=0.5;entryY=1;entryDx=0;entryDy=0;shape=flexArrow;width=0.4597701149425288;endSize=6.604597701149426;exitX=0.5;exitY=0;exitDx=0;exitDy=0;" edge="1" parent="Dk4b3AysWtvdtYyFpGCY-51" source="Ezs42kzGgRSB87XgSNbD-38" target="Dk4b3AysWtvdtYyFpGCY-53">
          <mxGeometry relative="1" as="geometry">
            <mxPoint x="150" y="480" as="sourcePoint" />
            <mxPoint x="215" y="460" as="targetPoint" />
            <Array as="points">
              <mxPoint x="120" y="450" />
              <mxPoint x="215" y="450" />
            </Array>
          </mxGeometry>
        </mxCell>
        <mxCell id="Ezs42kzGgRSB87XgSNbD-38" value="행정구역별&lt;br&gt;TCI 조회" style="ellipse;whiteSpace=wrap;html=1;" vertex="1" parent="Dk4b3AysWtvdtYyFpGCY-51">
          <mxGeometry x="60" y="491" width="120" height="60" as="geometry" />
        </mxCell>
        <mxCell id="Ezs42kzGgRSB87XgSNbD-39" value="도로별&lt;br&gt;TCI 조회" style="ellipse;whiteSpace=wrap;html=1;" vertex="1" parent="Dk4b3AysWtvdtYyFpGCY-51">
          <mxGeometry x="250" y="491" width="120" height="60" as="geometry" />
        </mxCell>
        <mxCell id="Ezs42kzGgRSB87XgSNbD-40" value="" style="endArrow=triangle;html=0;rounded=0;dashed=0;entryX=0.5;entryY=1;entryDx=0;entryDy=0;shape=flexArrow;width=0.4597701149425288;endSize=6.604597701149426;exitX=0.5;exitY=0;exitDx=0;exitDy=0;" edge="1" parent="Dk4b3AysWtvdtYyFpGCY-51" source="Ezs42kzGgRSB87XgSNbD-39">
          <mxGeometry relative="1" as="geometry">
            <mxPoint x="310" y="490" as="sourcePoint" />
            <mxPoint x="215" y="412" as="targetPoint" />
            <Array as="points">
              <mxPoint x="310" y="450" />
              <mxPoint x="215" y="450" />
            </Array>
          </mxGeometry>
        </mxCell>
        <mxCell id="Dk4b3AysWtvdtYyFpGCY-61" value="로딩 중 &lt;br&gt;메시지 출력" style="ellipse;whiteSpace=wrap;html=1;" parent="Dk4b3AysWtvdtYyFpGCY-51" vertex="1">
          <mxGeometry x="305" y="46" width="120" height="60" as="geometry" />
        </mxCell>
        <mxCell id="Ezs42kzGgRSB87XgSNbD-41" value="" style="endArrow=classic;html=1;rounded=0;dashed=1;entryX=0;entryY=0.5;entryDx=0;entryDy=0;exitX=1;exitY=0.5;exitDx=0;exitDy=0;" edge="1" parent="Dk4b3AysWtvdtYyFpGCY-51" source="Dk4b3AysWtvdtYyFpGCY-53" target="Dk4b3AysWtvdtYyFpGCY-67">
          <mxGeometry relative="1" as="geometry">
            <mxPoint x="250" y="136" as="sourcePoint" />
            <mxPoint x="395" y="242" as="targetPoint" />
          </mxGeometry>
        </mxCell>
        <mxCell id="Ezs42kzGgRSB87XgSNbD-42" value="&amp;lt;&amp;lt;include&amp;gt;&amp;gt;" style="edgeLabel;resizable=0;html=1;;align=center;verticalAlign=middle;" connectable="0" vertex="1" parent="Ezs42kzGgRSB87XgSNbD-41">
          <mxGeometry relative="1" as="geometry" />
        </mxCell>
        <mxCell id="Ezs42kzGgRSB87XgSNbD-57" value="" style="endArrow=classic;html=1;rounded=0;dashed=1;entryX=0;entryY=0.5;entryDx=0;entryDy=0;exitX=1;exitY=0.5;exitDx=0;exitDy=0;" edge="1" parent="Dk4b3AysWtvdtYyFpGCY-51" source="Dk4b3AysWtvdtYyFpGCY-53" target="Dk4b3AysWtvdtYyFpGCY-64">
          <mxGeometry relative="1" as="geometry">
            <mxPoint x="285" y="392" as="sourcePoint" />
            <mxPoint x="430" y="290" as="targetPoint" />
          </mxGeometry>
        </mxCell>
        <mxCell id="Ezs42kzGgRSB87XgSNbD-58" value="&amp;lt;&amp;lt;include&amp;gt;&amp;gt;" style="edgeLabel;resizable=0;html=1;;align=center;verticalAlign=middle;" connectable="0" vertex="1" parent="Ezs42kzGgRSB87XgSNbD-57">
          <mxGeometry relative="1" as="geometry" />
        </mxCell>
        <mxCell id="Ezs42kzGgRSB87XgSNbD-61" value="" style="endArrow=classic;html=1;rounded=0;dashed=1;entryX=0.5;entryY=0;entryDx=0;entryDy=0;exitX=0.5;exitY=1;exitDx=0;exitDy=0;" edge="1" parent="Dk4b3AysWtvdtYyFpGCY-51" source="Dk4b3AysWtvdtYyFpGCY-61" target="Dk4b3AysWtvdtYyFpGCY-64">
          <mxGeometry relative="1" as="geometry">
            <mxPoint x="382.5" y="272" as="sourcePoint" />
            <mxPoint x="237.5" y="66" as="targetPoint" />
          </mxGeometry>
        </mxCell>
        <mxCell id="Ezs42kzGgRSB87XgSNbD-62" value="&amp;lt;&amp;lt;extend&amp;gt;&amp;gt;" style="edgeLabel;resizable=0;html=1;;align=center;verticalAlign=middle;" connectable="0" vertex="1" parent="Ezs42kzGgRSB87XgSNbD-61">
          <mxGeometry relative="1" as="geometry" />
        </mxCell>
        <mxCell id="Ezs42kzGgRSB87XgSNbD-64" value="" style="endArrow=classic;html=1;rounded=0;dashed=1;entryX=1;entryY=0.5;entryDx=0;entryDy=0;exitX=0;exitY=0.5;exitDx=0;exitDy=0;" edge="1" parent="Dk4b3AysWtvdtYyFpGCY-51" source="Dk4b3AysWtvdtYyFpGCY-55" target="Dk4b3AysWtvdtYyFpGCY-53">
          <mxGeometry relative="1" as="geometry">
            <mxPoint x="325" y="126" as="sourcePoint" />
            <mxPoint x="325" y="170" as="targetPoint" />
          </mxGeometry>
        </mxCell>
        <mxCell id="Ezs42kzGgRSB87XgSNbD-65" value="&amp;lt;&amp;lt;extend&amp;gt;&amp;gt;" style="edgeLabel;resizable=0;html=1;;align=center;verticalAlign=middle;" connectable="0" vertex="1" parent="Ezs42kzGgRSB87XgSNbD-64">
          <mxGeometry relative="1" as="geometry" />
        </mxCell>
        <mxCell id="Ezs42kzGgRSB87XgSNbD-66" value="" style="endArrow=classic;html=1;rounded=0;dashed=1;entryX=1;entryY=0.5;entryDx=0;entryDy=0;exitX=0;exitY=0.5;exitDx=0;exitDy=0;" edge="1" parent="Dk4b3AysWtvdtYyFpGCY-51" source="Dk4b3AysWtvdtYyFpGCY-54" target="Dk4b3AysWtvdtYyFpGCY-53">
          <mxGeometry relative="1" as="geometry">
            <mxPoint x="430" y="392" as="sourcePoint" />
            <mxPoint x="285" y="392" as="targetPoint" />
          </mxGeometry>
        </mxCell>
        <mxCell id="Ezs42kzGgRSB87XgSNbD-67" value="&amp;lt;&amp;lt;extend&amp;gt;&amp;gt;" style="edgeLabel;resizable=0;html=1;;align=center;verticalAlign=middle;" connectable="0" vertex="1" parent="Ezs42kzGgRSB87XgSNbD-66">
          <mxGeometry relative="1" as="geometry" />
        </mxCell>
        <mxCell id="Ezs42kzGgRSB87XgSNbD-68" value="로딩 실패&lt;br&gt;메시지 출력" style="ellipse;whiteSpace=wrap;html=1;" vertex="1" parent="Dk4b3AysWtvdtYyFpGCY-51">
          <mxGeometry x="455" y="46" width="120" height="60" as="geometry" />
        </mxCell>
        <mxCell id="Ezs42kzGgRSB87XgSNbD-69" value="" style="endArrow=classic;html=1;rounded=0;dashed=1;entryX=0.5;entryY=0;entryDx=0;entryDy=0;exitX=0.5;exitY=1;exitDx=0;exitDy=0;" edge="1" parent="Dk4b3AysWtvdtYyFpGCY-51" source="Ezs42kzGgRSB87XgSNbD-68" target="Dk4b3AysWtvdtYyFpGCY-64">
          <mxGeometry relative="1" as="geometry">
            <mxPoint x="375" y="116" as="sourcePoint" />
            <mxPoint x="490" y="160" as="targetPoint" />
          </mxGeometry>
        </mxCell>
        <mxCell id="Ezs42kzGgRSB87XgSNbD-70" value="&amp;lt;&amp;lt;extend&amp;gt;&amp;gt;" style="edgeLabel;resizable=0;html=1;;align=center;verticalAlign=middle;" connectable="0" vertex="1" parent="Ezs42kzGgRSB87XgSNbD-69">
          <mxGeometry relative="1" as="geometry" />
        </mxCell>
        <mxCell id="Ezs42kzGgRSB87XgSNbD-9" value="" style="endArrow=classic;html=1;rounded=0;dashed=1;exitX=1;exitY=0.5;exitDx=0;exitDy=0;entryX=0;entryY=0.5;entryDx=0;entryDy=0;" edge="1" parent="1" source="ADXxkapIHS1w_zyvAE5N-8" target="1wFjq2a3WxG1-liffLTs-3">
          <mxGeometry relative="1" as="geometry">
            <mxPoint x="775" y="406" as="sourcePoint" />
            <mxPoint x="745" y="284" as="targetPoint" />
          </mxGeometry>
        </mxCell>
        <mxCell id="Ezs42kzGgRSB87XgSNbD-10" value="&amp;lt;&amp;lt;extend&amp;gt;&amp;gt;" style="edgeLabel;resizable=0;html=1;;align=center;verticalAlign=middle;" connectable="0" vertex="1" parent="Ezs42kzGgRSB87XgSNbD-9">
          <mxGeometry relative="1" as="geometry" />
        </mxCell>
        <mxCell id="Ezs42kzGgRSB87XgSNbD-11" value="" style="endArrow=none;html=1;rounded=0;entryX=0;entryY=0.5;entryDx=0;entryDy=0;exitX=1;exitY=0.3333333333333333;exitDx=0;exitDy=0;exitPerimeter=0;" edge="1" parent="1" source="ADXxkapIHS1w_zyvAE5N-1" target="ADXxkapIHS1w_zyvAE5N-20">
          <mxGeometry width="50" height="50" relative="1" as="geometry">
            <mxPoint x="245" y="824" as="sourcePoint" />
            <mxPoint x="325" y="614" as="targetPoint" />
          </mxGeometry>
        </mxCell>
        <mxCell id="Ezs42kzGgRSB87XgSNbD-12" value="" style="endArrow=none;html=1;rounded=0;entryX=0;entryY=0.5;entryDx=0;entryDy=0;exitX=1;exitY=0.3333333333333333;exitDx=0;exitDy=0;exitPerimeter=0;" edge="1" parent="1" source="ADXxkapIHS1w_zyvAE5N-1" target="ADXxkapIHS1w_zyvAE5N-15">
          <mxGeometry width="50" height="50" relative="1" as="geometry">
            <mxPoint x="225" y="740" as="sourcePoint" />
            <mxPoint x="500" y="684" as="targetPoint" />
          </mxGeometry>
        </mxCell>
        <mxCell id="Ezs42kzGgRSB87XgSNbD-13" value="" style="endArrow=none;html=1;rounded=0;entryX=0;entryY=0.5;entryDx=0;entryDy=0;exitX=1;exitY=0.3333333333333333;exitDx=0;exitDy=0;exitPerimeter=0;" edge="1" parent="1" source="ADXxkapIHS1w_zyvAE5N-1" target="ADXxkapIHS1w_zyvAE5N-8">
          <mxGeometry width="50" height="50" relative="1" as="geometry">
            <mxPoint x="265" y="844" as="sourcePoint" />
            <mxPoint x="540" y="788" as="targetPoint" />
          </mxGeometry>
        </mxCell>
        <mxCell id="Ezs42kzGgRSB87XgSNbD-14" value="" style="endArrow=none;html=1;rounded=0;exitX=1;exitY=0.3333333333333333;exitDx=0;exitDy=0;exitPerimeter=0;entryX=0;entryY=0.5;entryDx=0;entryDy=0;" edge="1" parent="1" source="ADXxkapIHS1w_zyvAE5N-1" target="Dk4b3AysWtvdtYyFpGCY-48">
          <mxGeometry width="50" height="50" relative="1" as="geometry">
            <mxPoint x="245" y="834" as="sourcePoint" />
            <mxPoint x="315" y="914" as="targetPoint" />
          </mxGeometry>
        </mxCell>
        <mxCell id="Ezs42kzGgRSB87XgSNbD-15" value="" style="endArrow=none;html=1;rounded=0;entryX=0;entryY=0.5;entryDx=0;entryDy=0;exitX=1;exitY=0.3333333333333333;exitDx=0;exitDy=0;exitPerimeter=0;" edge="1" parent="1" source="ADXxkapIHS1w_zyvAE5N-1" target="Dk4b3AysWtvdtYyFpGCY-53">
          <mxGeometry width="50" height="50" relative="1" as="geometry">
            <mxPoint x="255" y="844" as="sourcePoint" />
            <mxPoint x="540" y="788" as="targetPoint" />
          </mxGeometry>
        </mxCell>
      </root>
    </mxGraphModel>
  </diagram>
</mxfile>
